<svg width="137" height="28" viewBox="0 0 137 28" fill="none" xmlns="http://www.w3.org/2000/svg">
<path d="M18.104 11.768C18.104 13.0693 17.8053 14.264 17.208 15.352C16.6107 16.4187 15.6933 17.2827 14.456 17.944C13.2187 18.6053 11.6827 18.936 9.848 18.936H6.456V27H0.984V4.536H9.848C11.64 4.536 13.1547 4.84533 14.392 5.464C15.6293 6.08267 16.5573 6.936 17.176 8.024C17.7947 9.112 18.104 10.36 18.104 11.768ZM9.432 14.584C10.4773 14.584 11.256 14.3387 11.768 13.848C12.28 13.3573 12.536 12.664 12.536 11.768C12.536 10.872 12.28 10.1787 11.768 9.688C11.256 9.19733 10.4773 8.952 9.432 8.952H6.456V14.584H9.432ZM29.0808 27.256C27.3314 27.256 25.7528 26.8827 24.3448 26.136C22.9581 25.3893 21.8594 24.3227 21.0488 22.936C20.2594 21.5493 19.8648 19.928 19.8648 18.072C19.8648 16.2373 20.2701 14.6267 21.0807 13.24C21.8914 11.832 23.0008 10.7547 24.4088 10.008C25.8168 9.26133 27.3954 8.888 29.1448 8.888C30.8941 8.888 32.4728 9.26133 33.8808 10.008C35.2888 10.7547 36.3981 11.832 37.2088 13.24C38.0194 14.6267 38.4248 16.2373 38.4248 18.072C38.4248 19.9067 38.0088 21.528 37.1768 22.936C36.3661 24.3227 35.2461 25.3893 33.8168 26.136C32.4088 26.8827 30.8301 27.256 29.0808 27.256ZM29.0808 22.52C30.1261 22.52 31.0114 22.136 31.7368 21.368C32.4834 20.6 32.8568 19.5013 32.8568 18.072C32.8568 16.6427 32.4941 15.544 31.7688 14.776C31.0648 14.008 30.1901 13.624 29.1448 13.624C28.0781 13.624 27.1928 14.008 26.4888 14.776C25.7848 15.5227 25.4328 16.6213 25.4328 18.072C25.4328 19.5013 25.7741 20.6 26.4568 21.368C27.1608 22.136 28.0354 22.52 29.0808 22.52ZM46.7998 12.12C47.4398 11.1387 48.2398 10.3707 49.1998 9.816C50.1598 9.24 51.2264 8.952 52.3998 8.952V14.744H50.8958C49.5304 14.744 48.5064 15.0427 47.8238 15.64C47.1411 16.216 46.7998 17.24 46.7998 18.712V27H41.3278V9.144H46.7998V12.12ZM64.9673 22.36V27H62.1833C60.1993 27 58.6526 26.52 57.5433 25.56C56.4339 24.5787 55.8793 22.9893 55.8793 20.792V13.688H53.7033V9.144H55.8793V4.792H61.3513V9.144H64.9353V13.688H61.3513V20.856C61.3513 21.3893 61.4793 21.7733 61.7353 22.008C61.9913 22.2427 62.4179 22.36 63.0153 22.36H64.9673ZM76.9753 13.688H74.0312V27H68.5593V13.688H66.5753V9.144H68.5593V8.632C68.5593 6.43467 69.1886 4.77067 70.4473 3.64C71.7059 2.488 73.5513 1.912 75.9833 1.912C76.3886 1.912 76.6873 1.92267 76.8793 1.944V6.584C75.8339 6.52 75.0979 6.66933 74.6713 7.032C74.2446 7.39467 74.0312 8.04533 74.0312 8.984V9.144H76.9753V13.688ZM87.6745 27.256C85.9252 27.256 84.3465 26.8827 82.9385 26.136C81.5518 25.3893 80.4532 24.3227 79.6425 22.936C78.8532 21.5493 78.4585 19.928 78.4585 18.072C78.4585 16.2373 78.8638 14.6267 79.6745 13.24C80.4852 11.832 81.5945 10.7547 83.0025 10.008C84.4105 9.26133 85.9892 8.888 87.7385 8.888C89.4878 8.888 91.0665 9.26133 92.4745 10.008C93.8825 10.7547 94.9918 11.832 95.8025 13.24C96.6132 14.6267 97.0185 16.2373 97.0185 18.072C97.0185 19.9067 96.6025 21.528 95.7705 22.936C94.9598 24.3227 93.8398 25.3893 92.4105 26.136C91.0025 26.8827 89.4238 27.256 87.6745 27.256ZM87.6745 22.52C88.7198 22.52 89.6052 22.136 90.3305 21.368C91.0772 20.6 91.4505 19.5013 91.4505 18.072C91.4505 16.6427 91.0878 15.544 90.3625 14.776C89.6585 14.008 88.7838 13.624 87.7385 13.624C86.6718 13.624 85.7865 14.008 85.0825 14.776C84.3785 15.5227 84.0265 16.6213 84.0265 18.072C84.0265 19.5013 84.3678 20.6 85.0505 21.368C85.7545 22.136 86.6292 22.52 87.6745 22.52ZM91.8985 4.568L84.1865 7.8V4.024L91.8985 0.311998V4.568ZM105.394 3.32V27H99.9215V3.32H105.394ZM112.111 7.288C111.151 7.288 110.362 7.01067 109.743 6.456C109.146 5.88 108.847 5.176 108.847 4.344C108.847 3.49067 109.146 2.78667 109.743 2.232C110.362 1.656 111.151 1.368 112.111 1.368C113.05 1.368 113.818 1.656 114.415 2.232C115.034 2.78667 115.343 3.49067 115.343 4.344C115.343 5.176 115.034 5.88 114.415 6.456C113.818 7.01067 113.05 7.288 112.111 7.288ZM114.831 9.144V27H109.359V9.144H114.831ZM126.925 27.256C125.175 27.256 123.597 26.8827 122.189 26.136C120.802 25.3893 119.703 24.3227 118.893 22.936C118.103 21.5493 117.709 19.928 117.709 18.072C117.709 16.2373 118.114 14.6267 118.924 13.24C119.735 11.832 120.845 10.7547 122.253 10.008C123.661 9.26133 125.239 8.888 126.989 8.888C128.738 8.888 130.317 9.26133 131.725 10.008C133.133 10.7547 134.242 11.832 135.053 13.24C135.863 14.6267 136.269 16.2373 136.269 18.072C136.269 19.9067 135.853 21.528 135.021 22.936C134.21 24.3227 133.09 25.3893 131.661 26.136C130.253 26.8827 128.674 27.256 126.925 27.256ZM126.925 22.52C127.97 22.52 128.855 22.136 129.581 21.368C130.327 20.6 130.701 19.5013 130.701 18.072C130.701 16.6427 130.338 15.544 129.613 14.776C128.909 14.008 128.034 13.624 126.989 13.624C125.922 13.624 125.037 14.008 124.333 14.776C123.629 15.5227 123.277 16.6213 123.277 18.072C123.277 19.5013 123.618 20.6 124.301 21.368C125.005 22.136 125.879 22.52 126.925 22.52Z" fill="#F9F9F9"/>
</svg>
