<svg width="32" height="32" viewBox="0 0 32 32" fill="none" xmlns="http://www.w3.org/2000/svg">
<g clip-path="url(#clip0_144_2)">
<path d="M9.67064 24.6587L10.636 25.2227C12.2639 26.1722 14.1154 26.6706 16 26.6667C18.1096 26.6667 20.1719 26.0412 21.9261 24.8691C23.6802 23.697 25.0474 22.0311 25.8547 20.082C26.662 18.133 26.8733 15.9882 26.4617 13.9191C26.0501 11.85 25.0342 9.94937 23.5425 8.45761C22.0507 6.96585 20.1501 5.94995 18.0809 5.53837C16.0118 5.1268 13.8671 5.33803 11.918 6.14537C9.96894 6.9527 8.30304 8.31987 7.13097 10.074C5.9589 11.8281 5.33331 13.8904 5.33331 16.0001C5.33331 17.9147 5.83598 19.7507 6.77864 21.3654L7.34131 22.3307L6.47064 25.5321L9.67064 24.6587ZM2.67198 29.3334L4.47464 22.7094C3.28683 20.6732 2.66277 18.3574 2.66664 16.0001C2.66664 8.63608 8.63598 2.66675 16 2.66675C23.364 2.66675 29.3333 8.63608 29.3333 16.0001C29.3333 23.3641 23.364 29.3334 16 29.3334C13.6437 29.3372 11.3289 28.7136 9.29331 27.5267L2.67198 29.3334ZM11.188 9.74408C11.3666 9.73075 11.5466 9.73075 11.7253 9.73875C11.7973 9.74408 11.8693 9.75208 11.9413 9.76008C12.1533 9.78408 12.3866 9.91341 12.4653 10.0921C12.8626 10.9934 13.2493 11.9014 13.6226 12.8121C13.7053 13.0147 13.656 13.2747 13.4986 13.5281C13.3904 13.6994 13.2734 13.8649 13.148 14.0241C12.9973 14.2174 12.6733 14.5721 12.6733 14.5721C12.6733 14.5721 12.5413 14.7294 12.592 14.9254C12.6106 15.0001 12.672 15.1081 12.728 15.1987L12.8066 15.3254C13.148 15.8947 13.6066 16.4721 14.1666 17.0161C14.3266 17.1707 14.4826 17.3294 14.6506 17.4774C15.2746 18.0281 15.9813 18.4774 16.744 18.8107L16.7506 18.8134C16.864 18.8627 16.9213 18.8894 17.0866 18.9601C17.1693 18.9947 17.2546 19.0254 17.3413 19.0481C17.4309 19.0709 17.5252 19.0666 17.6123 19.0357C17.6994 19.0049 17.7754 18.9488 17.8306 18.8747C18.796 17.7054 18.884 17.6294 18.892 17.6294V17.6321C18.959 17.5695 19.0387 17.5221 19.1256 17.4929C19.2126 17.4636 19.3048 17.4534 19.396 17.4627C19.476 17.4681 19.5573 17.4827 19.632 17.5161C20.34 17.8401 21.4986 18.3454 21.4986 18.3454L22.2746 18.6934C22.4053 18.7561 22.524 18.9041 22.528 19.0467C22.5333 19.1361 22.5413 19.2801 22.5106 19.5441C22.468 19.8894 22.364 20.3041 22.26 20.5214C22.1888 20.6697 22.0942 20.8057 21.98 20.9241C21.8454 21.0653 21.6981 21.1939 21.54 21.3081C21.4853 21.3492 21.4297 21.3892 21.3733 21.4281C21.2075 21.5333 21.0371 21.6312 20.8626 21.7214C20.5194 21.9038 20.1402 22.0084 19.752 22.0281C19.5053 22.0414 19.2586 22.0601 19.0106 22.0467C19 22.0467 18.2533 21.9307 18.2533 21.9307C16.3576 21.4321 14.6045 20.498 13.1333 19.2027C12.832 18.9374 12.5533 18.6521 12.268 18.3681C11.0813 17.1881 10.1853 15.9147 9.64131 14.7121C9.36287 14.1218 9.21247 13.4793 9.19998 12.8267C9.19448 12.0172 9.45911 11.229 9.95198 10.5867C10.0493 10.4614 10.1413 10.3307 10.3 10.1801C10.4693 10.0201 10.576 9.93475 10.692 9.87608C10.8462 9.79879 11.0145 9.75344 11.1866 9.74275L11.188 9.74408Z" fill="#6F00FF"/>
</g>
<defs>
<clipPath id="clip0_144_2">
<rect width="32" height="32" fill="white"/>
</clipPath>
</defs>
</svg>
