<svg width="32" height="32" viewBox="0 0 32 32" fill="none" xmlns="http://www.w3.org/2000/svg">
<path fill-rule="evenodd" clip-rule="evenodd" d="M16 0C7.16429 0 0 7.34325 0 16.408C0 23.5546 4.45531 29.6254 10.6708 31.8774C10.8512 31.9427 11.0376 32.0023 11.2295 31.9999C11.814 31.9925 12.0357 31.5593 12.0357 31.1802V31.1802C12.0357 29.7445 10.6415 28.7806 9.24408 28.4508C7.51561 28.0429 6.85593 26.7736 6.67645 26.3366C6.63577 26.2376 6.60256 26.1365 6.56199 26.0374C6.07331 24.844 5.46216 24.2368 5.11579 23.9679C4.94324 23.8339 4.74817 23.7275 4.58072 23.5872C3.78326 22.919 4.53322 22.8084 4.83614 22.7904C4.91232 22.7858 4.98852 22.7888 5.06433 22.7976C6.43525 22.9572 7.22231 24.1771 7.37323 24.4329C7.39186 24.4645 7.40955 24.4968 7.42803 24.5285C8.66034 26.6382 10.5304 26.4003 11.6057 26.0262C11.8925 25.9264 12.0955 25.5493 12.172 25.2554V25.2554C12.3649 24.514 11.8681 23.493 11.1267 23.2999C8.27857 22.558 5.78571 20.6787 5.78571 15.5437C5.78571 14.7084 5.9206 13.9444 6.16797 13.251C6.67691 11.8244 6.99624 10.2198 7.13121 8.71115C7.13349 8.68562 7.13595 8.65994 7.13857 8.6341C7.25963 7.44228 8.3109 6.66268 9.43345 7.081C9.71126 7.18452 10.0221 7.31996 10.367 7.49631C11.4342 8.04195 12.6503 8.25762 13.8367 8.0869C14.5469 7.9847 15.2699 7.93278 15.9929 7.92899C16.7129 7.93278 17.4369 7.98482 18.1489 8.08725C19.3353 8.25791 20.5516 8.042 21.6186 7.49602C21.9625 7.32004 22.2723 7.18483 22.5492 7.08141C23.6694 6.66308 24.7181 7.44069 24.8396 8.63023C24.8427 8.66021 24.8455 8.68998 24.8481 8.71955C24.9807 10.2239 25.2958 11.8229 25.8063 13.2442C26.0564 13.9406 26.1929 14.7068 26.1929 15.5437C26.1929 19.9117 24.3938 21.9175 22.1024 22.8726C20.9203 23.3654 19.9714 25.3922 19.9714 26.6728V26.6728C19.9714 28.8658 19.95 30.6373 19.95 31.1731C19.95 31.6088 20.2357 32.1231 21.05 31.9588C27.4214 29.7944 32 23.6513 32 16.408C32 7.34325 24.8357 0 16 0Z" fill="#6F00FF"/>
</svg>
