<svg width="35" height="35" viewBox="0 0 35 35" fill="none" xmlns="http://www.w3.org/2000/svg">
<path d="M5.27083 0C2.37671 0 0 2.37671 0 5.27083V29.2292C0 32.1233 2.37671 34.5 5.27083 34.5H29.2292C32.1233 34.5 34.5 32.1233 34.5 29.2292V5.27083C34.5 2.37671 32.1233 0 29.2292 0H5.27083ZM5.27083 2.875H29.2292C30.5709 2.875 31.625 3.92912 31.625 5.27083V29.2292C31.625 30.5709 30.5709 31.625 29.2292 31.625H5.27083C3.92912 31.625 2.875 30.5709 2.875 29.2292V5.27083C2.875 3.92912 3.92912 2.875 5.27083 2.875ZM9.93896 7.25488C8.51871 7.25488 7.66667 8.10627 7.66667 9.23519C7.66667 10.3718 8.51839 11.2267 9.79297 11.2267C11.2132 11.2267 12.0578 10.3718 12.0578 9.23519C12.0578 8.10819 11.2135 7.25488 9.93896 7.25488ZM9.86971 13.3455C8.71916 13.3455 7.78646 14.2782 7.78646 15.4288V22.8334C7.78646 23.984 8.71916 24.9167 9.86971 24.9167V24.9167C11.0203 24.9167 11.953 23.984 11.953 22.8334V15.4288C11.953 14.2782 11.0203 13.3455 9.86971 13.3455V13.3455ZM17.4802 13.3455C16.3297 13.3455 15.397 14.2782 15.397 15.4288V22.8334C15.397 23.984 16.3297 24.9167 17.4802 24.9167V24.9167C18.6308 24.9167 19.5635 23.984 19.5635 22.8334V18.5864C19.5635 16.71 20.9073 16.4339 21.3117 16.4339C21.7161 16.4339 22.7941 16.8384 22.7941 18.5864V22.8971C22.7941 24.0125 23.6983 24.9167 24.8137 24.9167V24.9167C25.9291 24.9167 26.8333 24.0125 26.8333 22.8971V18.5864C26.8333 14.962 25.2128 13.3455 23.1984 13.3455C21.9411 13.3455 21.0485 13.6067 20.4233 14.0332C20.1355 14.2296 19.5635 14.0339 19.5635 13.6855V13.6855C19.5635 13.4977 19.4113 13.3455 19.2235 13.3455H17.4802Z" fill="#6F00FF"/>
</svg>
